<?xml version="1.0" encoding="utf-8"?>
<!-- Svg Vector Icons : http://www.sfont.cn -->
<!DOCTYPE svg PUBLIC "-//W3C//DTD SVG 1.1//EN" "http://www.w3.org/Graphics/SVG/1.1/DTD/svg11.dtd">
<svg version="1.1" xmlns="http://www.w3.org/2000/svg" xmlns:xlink="http://www.w3.org/1999/xlink" x="0px" y="0px" viewBox="0 0 1000 1000" enable-background="new 0 0 1000 1000" xml:space="preserve">
<metadata> Svg Vector Icons : http://www.sfont.cn </metadata>
<g><path d="M44.4,174c5,0,10.1-1.8,14-5.6L188.9,45.2c8.2-7.7,8.6-20.6,0.8-28.8c-7.7-8.2-20.6-8.6-28.8-0.8L30.4,138.8c-8.2,7.7-8.6,20.6-0.8,28.8C33.5,171.9,39,174,44.4,174z" fill="#f7f7f7"/><path d="M932.6,168.4c3.9,3.7,9,5.6,14,5.6c5.4,0,10.8-2.1,14.8-6.4c7.7-8.2,7.4-21.1-0.8-28.8L829.9,15.6c-8.1-7.8-21.1-7.4-28.8,0.8c-7.7,8.2-7.4,21.1,0.8,28.8L932.6,168.4z" fill="#f7f7f7"/><path d="M500,33.5C236.3,33.5,21.7,248,21.7,511.8C21.7,775.5,236.3,990,500,990s478.3-214.5,478.3-478.2C978.3,248,763.7,33.5,500,33.5z M500,950.2c-241.8,0-438.5-196.7-438.5-438.5C61.5,270,258.2,73.3,500,73.3c241.8,0,438.5,196.7,438.5,438.5C938.5,753.5,741.8,950.2,500,950.2z" fill="#f7f7f7"/><path d="M759.2,486.7H523.4V250.9c0-5.9-4.8-10.7-10.9-10.7h-21.4c-6,0-10.9,4.8-10.9,10.7v235.7h-0.1c-5.9,0-10.7,4.8-10.7,10.9V519c0,6,4.8,10.9,10.7,10.9h0.1v0.1c0,5.9,4.8,10.7,10.9,10.7h21.4c6,0,10.9-4.8,10.9-10.7v-0.1h235.7c5.9,0,10.7-4.8,10.7-10.9v-21.4C769.9,491.5,765.1,486.7,759.2,486.7z" fill="#f7f7f7"/></g>
</svg>