<?xml version="1.0" encoding="utf-8"?>
<!-- Svg Vector Icons : http://www.sfont.cn -->
<!DOCTYPE svg PUBLIC "-//W3C//DTD SVG 1.1//EN" "http://www.w3.org/Graphics/SVG/1.1/DTD/svg11.dtd">
<svg version="1.1" xmlns="http://www.w3.org/2000/svg" xmlns:xlink="http://www.w3.org/1999/xlink" x="0px" y="0px" viewBox="0 0 1000 1000" enable-background="new 0 0 1000 1000" xml:space="preserve">
<metadata> Svg Vector Icons : http://www.sfont.cn </metadata>
<g><path d="M345.4,990c-20.6,0-37.6-0.5-48.9-1.6l5.3-58.1c50.9,4.6,244.9-2.5,316-25.8c151.4-49.5,201.9-94.5,200.1-178C817,684.7,762.8,610.5,617,577.7l12.8-56.9c168.1,37.7,245,129.9,246.5,204.5c3,143-122.4,196.1-240.3,234.7C571.4,981.1,428.9,990,345.4,990z" fill="#d6d6d6"/><path d="M255.8,520.8C193,489.1,148,438.9,129.1,379.6c-17.7-55.7-11.3-114.8,18.5-170.9c73-137.5,229-181.2,346.9-193.6C650.1-1.2,871.3,26.9,880.7,28.1L873.2,86c-2.2-0.3-223.9-28.6-372.5-12.9c-103.8,10.9-240.5,48.1-301.5,163c-22.3,41.9-27.2,85.4-14.4,125.8c14.1,44.3,48.7,82.2,97.4,106.8L255.8,520.8z" fill="#d6d6d6"/><path d="M402.2,325.7l184.2,258.5l-316,30.2L402.2,325.7z" fill="#d6d6d6"/></g>
</svg>